<svg xmlns="http://www.w3.org/2000/svg" width="1254" height="836" viewBox="0 0 1254 836">
<g>
<path d="M 725.00 348.93 L 735.19 349.22 L 745.37 349.50 L 759.44 377.24 C767.17,392.50 773.78,404.98 774.13,404.99 C774.47,405.00 775.35,403.54 776.07,401.75 C776.79,399.96 777.67,398.27 778.01,398.00 C778.35,397.73 782.63,389.40 787.52,379.50 C792.41,369.60 797.33,360.15 798.45,358.50 C799.58,356.85 800.42,355.27 800.34,355.00 C800.25,354.73 800.91,353.26 801.81,351.75 C803.39,349.06 803.65,349.00 812.73,349.00 L 822.02 349.00 L 821.50 435.50 L 813.75 435.79 L 806.00 436.08 L 805.93 409.29 C805.89,394.56 805.49,381.60 805.04,380.50 L 804.21 378.50 L 803.46 380.50 C803.04,381.60 797.76,392.06 791.72,403.75 L 780.74 425.00 L 773.12 424.97 L 765.50 424.95 L 763.01 419.47 C761.64,416.46 760.15,414.00 759.70,414.00 C759.25,414.00 759.11,413.62 759.40,413.16 C759.68,412.70 758.24,409.44 756.20,405.91 C754.15,402.39 750.01,394.64 746.99,388.71 L 741.50 377.91 L 740.50 435.50 L 732.75 435.79 L 725.00 436.08 L 725.00 348.93 ZM 637.00 349.00 L 657.25 349.04 C684.81,349.08 693.17,351.02 700.42,359.04 C704.12,363.14 707.00,370.99 707.00,377.00 C707.00,386.72 701.83,395.67 693.36,400.63 C690.96,402.04 689.00,403.37 689.00,403.58 C689.00,403.80 693.77,410.58 699.60,418.66 C705.43,426.74 710.42,433.94 710.70,434.67 C711.11,435.72 709.20,436.00 701.68,436.00 L 692.14 436.00 L 687.51 429.91 C684.97,426.56 682.47,422.74 681.97,421.41 C681.46,420.09 680.59,419.00 680.02,419.00 C679.46,419.00 679.00,418.33 679.00,417.50 C679.00,416.67 678.55,416.00 678.00,416.00 C677.45,416.00 677.00,415.33 677.00,414.50 C677.00,413.67 676.55,413.00 676.00,413.00 C675.45,413.00 675.11,412.65 675.25,412.23 C675.39,411.81 674.54,410.23 673.36,408.73 C671.30,406.11 670.83,406.00 662.11,406.00 L 653.00 406.00 L 653.00 436.00 L 637.00 436.00 L 637.00 349.00 ZM 543.00 349.00 L 560.95 349.00 L 561.50 384.50 L 601.50 384.50 L 602.05 349.00 L 619.02 349.00 L 618.50 435.50 L 602.50 435.50 L 601.95 400.00 L 561.05 400.00 L 560.50 435.50 L 543.00 436.08 L 543.00 349.00 ZM 863.50 436.91 C855.99,435.90 842.71,431.76 839.60,429.47 C838.25,428.46 837.99,427.70 838.71,426.78 C839.27,426.08 840.52,423.36 841.50,420.75 C842.99,416.75 843.68,416.00 845.89,416.00 C847.32,416.01 849.85,416.82 851.50,417.82 C854.34,419.53 860.50,421.53 866.00,422.52 C867.38,422.76 869.69,423.22 871.15,423.54 C874.84,424.34 884.85,421.24 887.66,418.43 C889.23,416.86 890.00,414.93 890.00,412.55 C890.00,406.67 885.56,403.50 872.34,399.93 C850.88,394.14 845.35,391.14 840.94,382.89 C839.81,380.79 839.53,371.04 840.45,366.24 C841.57,360.46 847.05,354.26 853.37,351.62 C863.57,347.37 882.42,347.10 894.10,351.04 C900.40,353.15 905.00,355.67 905.00,356.98 C905.00,357.39 903.64,360.71 901.99,364.37 L 898.97 371.02 L 894.24 368.64 C888.22,365.61 877.75,363.00 871.65,363.00 C866.48,363.00 859.63,365.91 858.62,368.54 C856.08,375.16 860.16,379.83 871.32,383.07 L 885.00 387.04 C900.29,391.47 908.00,399.82 908.00,411.92 C908.00,423.34 901.08,431.82 888.78,435.47 C882.20,437.43 871.77,438.02 863.50,436.91 ZM 681.31 389.52 C685.91,387.34 687.90,383.76 688.13,377.29 C688.49,367.07 683.53,364.03 665.25,363.25 L 653.00 362.73 L 653.00 376.70 C653.00,384.38 653.34,391.02 653.75,391.44 C655.22,392.97 677.29,391.43 681.31,389.52 Z" fill="rgba(65,54,148,1)"/>
<path d="M 463.57 459.43 C462.21,458.06 462.00,453.54 462.00,425.05 C462.00,395.78 462.18,392.10 463.65,390.87 C464.86,389.86 469.66,389.42 481.72,389.18 C495.43,388.92 498.54,389.13 500.57,390.45 L 503.00 392.05 L 503.00 425.32 C503.00,449.87 502.69,458.91 501.80,459.80 C500.96,460.64 495.33,461.00 482.87,461.00 C468.09,461.00 464.88,460.74 463.57,459.43 ZM 450.49 380.34 L 450.25 416.75 C450.10,439.44 449.79,458.00 449.57,458.00 C446.85,458.00 446.00,456.36 445.98,451.14 C445.97,445.88 443.76,429.97 442.49,425.98 C442.16,424.94 440.51,423.94 438.47,423.56 C436.54,423.20 435.00,422.31 435.00,421.56 C435.00,420.81 433.53,418.01 431.73,415.33 C427.90,409.65 425.86,404.36 423.49,394.00 C422.55,389.88 420.89,383.51 419.80,379.85 C418.38,375.09 417.54,372.54 418.46,371.11 C419.56,369.38 423.23,369.29 431.51,368.92 L 442.94 368.41 C447.88,368.98 449.03,370.46 449.93,373.70 C450.15,374.48 450.34,376.75 450.49,380.34 ZM 407.03 338.51 C407.01,338.27 407.01,338.03 407.01,337.80 C407.03,326.13 415.54,317.00 426.40,317.00 C434.58,317.00 440.58,320.90 444.10,328.50 C446.39,333.43 446.45,336.32 444.42,342.29 C442.20,348.78 436.94,353.10 430.48,354.36 C431.00,354.24 431.51,354.10 432.00,353.93 C434.07,353.21 433.81,353.11 430.50,353.36 C425.70,353.72 418.49,350.79 416.91,347.83 C416.29,346.68 413.81,343.76 411.39,341.34 C408.12,338.06 407.20,337.40 407.03,338.51 ZM 474.00 379.18 C467.06,376.03 463.00,369.86 463.00,362.44 C463.00,356.26 465.46,351.41 470.42,347.80 C474.23,345.03 475.00,344.85 482.02,345.16 C488.06,345.43 490.14,345.96 492.52,347.83 C502.85,355.90 502.45,370.37 491.71,377.34 C488.36,379.51 486.48,379.99 481.55,379.93 C478.22,379.89 474.83,379.55 474.00,379.18 ZM 450.04 458.25 C450.86,455.37 450.94,446.73 450.76,416.68 L 450.56 382.13 C450.84,389.76 450.99,402.06 450.99,417.68 C451.00,446.81 450.87,455.38 450.04,458.25 ZM 442.39 368.35 L 428.16 368.42 C418.09,368.47 414.20,368.51 412.23,369.12 C414.19,368.49 418.00,368.38 427.67,368.18 C434.57,368.05 439.21,368.03 442.39,368.35 ZM 420.00 353.83 C416.38,352.81 412.82,349.97 410.34,346.57 C412.94,349.91 416.65,352.89 420.00,353.83 Z" fill="rgba(163,182,252,1)"/>
<path d="M 358.20 459.80 C357.32,458.92 357.00,451.01 357.00,430.45 C357.00,404.46 357.14,402.18 358.83,400.65 C360.38,399.25 363.22,399.00 377.33,399.00 C392.67,399.00 394.16,399.16 396.00,401.00 C397.90,402.90 398.00,404.33 398.00,430.80 C398.00,451.09 397.68,458.92 396.80,459.80 C395.96,460.64 390.24,461.00 377.50,461.00 C364.76,461.00 359.04,460.64 358.20,459.80 ZM 409.57 459.43 C408.19,458.05 408.00,452.68 408.00,415.54 C408.00,375.38 408.10,373.10 409.91,370.86 C411.77,368.56 412.24,368.50 428.16,368.42 L 444.50 368.34 L 431.51 368.92 C416.38,369.60 416.66,369.33 419.80,379.85 C420.89,383.51 422.55,389.88 423.49,394.00 C425.86,404.36 427.90,409.65 431.73,415.33 C433.53,418.01 435.00,420.81 435.00,421.56 C435.00,422.31 436.54,423.20 438.47,423.56 C440.51,423.94 442.16,424.94 442.49,425.98 C443.76,429.97 445.97,445.88 445.98,451.14 C446.00,456.36 446.85,458.00 449.57,458.00 C449.79,458.00 450.10,439.44 450.25,416.75 L 450.52 375.50 L 450.76 416.68 C450.97,452.99 450.81,458.04 449.43,459.43 C448.11,460.74 444.85,461.00 429.50,461.00 C414.15,461.00 410.89,460.74 409.57,459.43 ZM 366.34 384.94 C351.64,377.60 353.45,356.67 369.23,351.42 C379.62,347.97 390.21,353.63 393.03,364.13 C394.34,368.99 393.61,373.11 390.44,378.62 C386.16,386.05 374.63,389.08 366.34,384.94 ZM 420.00 353.83 C414.07,352.16 407.00,344.10 407.00,339.02 C407.00,337.27 407.69,337.64 411.39,341.34 C413.81,343.76 416.29,346.68 416.91,347.83 C418.49,350.79 425.70,353.72 430.50,353.36 C433.81,353.11 434.07,353.21 432.00,353.93 C428.70,355.08 424.30,355.05 420.00,353.83 Z" fill="rgba(162,105,245,1)"/>
</g>
</svg>